<svg width="25" height="24" viewBox="0 0 25 24" fill="none" xmlns="http://www.w3.org/2000/svg">
<g id="Icon">
<path id="Vector 1913" d="M12.5 2V6" stroke="white" stroke-linecap="round" stroke-linejoin="round"/>
<path id="Vector 1914" d="M14.5 4L10.5 4" stroke="white" stroke-linecap="round" stroke-linejoin="round"/>
<path id="Rectangle 840" d="M4.5 10V16.7639C4.5 17.5215 4.928 18.214 5.60557 18.5528L11.6056 21.5528C12.1686 21.8343 12.8314 21.8343 13.3944 21.5528L19.3944 18.5528C20.072 18.214 20.5 17.5215 20.5 16.7639V10" stroke="white"/>
<path id="Vector 1906" d="M18.5 5L20.5 6L12.5 10L4.5 6L6.5 5" stroke="white" stroke-linecap="round" stroke-linejoin="round"/>
<path id="Vector 1947" d="M20.5 6L12.5 10L14.5 13L22.5 9L20.5 6Z" stroke="white" stroke-linecap="round" stroke-linejoin="round"/>
<path id="Vector 1948" d="M4.5 6L12.5 10L10.5 13L2.5 9L4.5 6Z" stroke="white" stroke-linecap="round" stroke-linejoin="round"/>
</g>
</svg>
